<?xml version="1.0" standalone="no"?>
<!DOCTYPE svg PUBLIC "-//W3C//DTD SVG 20010904//EN"
 "http://www.w3.org/TR/2001/REC-SVG-20010904/DTD/svg10.dtd">
<svg version="1.0" xmlns="http://www.w3.org/2000/svg"
 width="1000.000000pt" height="1000.000000pt" viewBox="0 0 1000.000000 1000.000000"
 preserveAspectRatio="xMidYMid meet">

<g transform="translate(0.000000,1000.000000) scale(0.100000,-0.100000)"
fill="#000000" stroke="none">
<path d="M4665 9989 c-508 -34 -1059 -159 -1531 -349 -193 -78 -528 -246 -708
-354 -1320 -797 -2195 -2140 -2386 -3666 -165 -1314 200 -2642 1014 -3689 373
-480 850 -903 1372 -1217 1046 -628 2278 -851 3489 -629 873 160 1702 562
2379 1156 1007 883 1614 2120 1696 3459 113 1855 -816 3620 -2416 4586 -180
108 -515 276 -708 354 -684 275 -1457 397 -2201 349z"/>
</g>
</svg>
