<?xml version="1.0" standalone="no"?>
<!DOCTYPE svg PUBLIC "-//W3C//DTD SVG 20010904//EN"
 "http://www.w3.org/TR/2001/REC-SVG-20010904/DTD/svg10.dtd">
<svg version="1.0" xmlns="http://www.w3.org/2000/svg"
 width="192.000000pt" height="192.000000pt" viewBox="0 0 192.000000 192.000000"
 preserveAspectRatio="xMidYMid meet">

<g transform="translate(0.000000,192.000000) scale(0.100000,-0.100000)"
fill="#000000" stroke="none">
<path d="M817 1909 c-262 -38 -517 -204 -663 -429 -203 -316 -203 -724 1
-1041 194 -301 552 -471 908 -432 450 51 799 400 850 850 57 510 -308 979
-818 1052 -82 12 -196 12 -278 0z m583 -440 c0 -11 -22 -61 -50 -111 -27 -50
-50 -94 -50 -99 0 -5 11 -9 25 -9 14 0 25 -4 25 -10 0 -5 -15 -10 -34 -10 -31
0 -37 -5 -65 -52 l-30 -53 29 -3 c17 -2 30 -6 30 -9 0 -4 -11 -26 -25 -50 -22
-36 -31 -43 -58 -43 -30 0 -35 -5 -85 -100 -29 -55 -48 -100 -43 -100 6 0 11
-4 11 -10 0 -5 -8 -10 -18 -10 -12 0 -28 -21 -50 -65 l-32 -65 215 0 c137 0
215 -4 215 -10 0 -6 -30 -10 -70 -10 l-70 0 0 -50 0 -50 70 0 70 0 0 -45 c0
-27 5 -45 11 -45 8 0 8 -5 -1 -15 -11 -13 -70 -15 -421 -15 -402 0 -409 0
-409 20 0 16 7 20 30 20 35 0 43 29 10 37 -16 4 -18 9 -9 24 9 18 5 19 -56 19
-36 0 -65 3 -65 8 1 4 11 25 24 47 l23 40 70 3 70 3 59 109 c56 105 60 110 92
110 37 0 46 28 12 37 -25 7 -25 6 6 59 22 37 31 44 58 44 32 0 40 10 84 103 2
4 -8 7 -22 7 -33 0 -33 9 4 75 l30 55 -192 2 -193 3 -3 63 c-3 61 -3 62 -32
62 -17 0 -30 5 -30 10 0 6 14 10 30 10 29 0 30 2 30 45 l0 45 390 0 c387 0
390 0 390 -21z m-810 -979 c0 -5 -12 -10 -26 -10 -14 0 -23 4 -19 10 3 6 15
10 26 10 10 0 19 -4 19 -10z"/>
</g>
</svg>
