<?xml version="1.0" standalone="no"?>
<!DOCTYPE svg PUBLIC "-//W3C//DTD SVG 20010904//EN"
 "http://www.w3.org/TR/2001/REC-SVG-20010904/DTD/svg10.dtd">
<svg version="1.0" xmlns="http://www.w3.org/2000/svg"
 width="1000.000000pt" height="1000.000000pt" viewBox="0 0 1000.000000 1000.000000"
 preserveAspectRatio="xMidYMid meet">

<g transform="translate(0.000000,1000.000000) scale(0.100000,-0.100000)"
fill="#000000" stroke="none">
<path d="M2519 7953 c-1366 -993 -2492 -1810 -2501 -1817 -16 -11 63 -260 937
-2950 525 -1616 955 -2940 955 -2942 0 -2 1393 -4 3095 -4 1702 0 3095 2 3095
4 0 2 428 1319 950 2927 523 1608 949 2933 948 2944 -2 13 -799 597 -2443
1792 -1342 975 -2465 1791 -2496 1812 l-55 40 -2485 -1806z"/>
</g>
</svg>
